<svg width="159" height="42" viewBox="0 0 159 42" fill="none" xmlns="http://www.w3.org/2000/svg">
<path d="M127.939 29.9752L125.668 15.5789H119.472L116.702 33.1345H120.385H120.528L120.548 32.9936L120.695 31.893L120.951 29.9752H124.19L124.598 33.0293L124.612 33.1345H128.438L128.35 32.5772L127.939 29.9752ZM121.397 26.6989L122.57 18.1552L123.743 26.6989H121.397Z" fill="black"/>
<path d="M141.086 29.999L139.513 15.5789H134.725L133.248 30.0228L132.12 15.5789H128.483L130.384 33.1345H135.783L137.167 18.6926L138.622 33.1345H143.949L145.85 15.5789H142.211L141.086 29.999Z" fill="black"/>
<path d="M154.668 23.8192L158.141 15.5789H153.988L151.079 23.9363V15.5789H147.136V33.1345H151.079V24.7553L153.942 33.1345H158.307L154.668 23.8192Z" fill="black"/>
<path d="M63.7451 23.5037C64.284 22.8096 64.5544 21.9151 64.5544 20.8243V20.1461C64.5544 19.1485 64.3317 18.3136 63.8863 17.6413C63.4409 16.9709 62.8265 16.4593 62.0451 16.1082C61.2617 15.7572 60.3709 15.5807 59.3687 15.5807H53.501V18.857V33.1362H57.444V24.4993L60.6115 33.1362H64.9998L61.5977 25.0149C62.4905 24.6996 63.2063 24.1978 63.7451 23.5037ZM60.6115 21.1496C60.6115 21.931 60.4504 22.4922 60.1303 22.8353C59.8101 23.1784 59.3747 23.351 58.8279 23.351H57.444V20.4733C57.444 19.5809 56.7182 18.857 55.8234 18.857H57.444H58.8279C59.3747 18.857 59.8101 19.0018 60.1303 19.2893C60.4504 19.5789 60.6115 20.0886 60.6115 20.8224V21.1496Z" fill="black"/>
<path d="M74.3162 15.5789H68.1204L65.8497 29.9752L65.3506 33.1345H69.1762L69.5978 29.9752H72.8369L73.2584 33.1345H77.0841L76.585 29.9752L74.3162 15.5789ZM70.0452 26.6989L71.2183 18.1552L72.3915 26.6989H70.0452Z" fill="black"/>
<path d="M76.7383 18.9742H79.5996V33.1345H83.5903V18.9742H86.4535V15.5789H76.7383V18.9742Z" fill="black"/>
<path d="M87.8574 18.9742V25.8778V33.1345H96.6342V29.7412H91.8004V25.8778H96.6342V22.4845H91.8004V18.9742H96.6342V15.5789H87.8574V18.9742Z" fill="black"/>
<path d="M111.42 22.4151H107.901V15.5789H103.912V25.8302V33.1325H107.901V27.4485C107.901 26.5561 107.175 25.8322 106.28 25.8322H107.901H111.42V33.1345H115.409V25.8322V15.5789H111.42V22.4151Z" fill="black"/>
<path d="M44.0209 14.0928L29.7204 5.85845L19.5498 0L22.3634 3.9367C23.0196 4.85494 22.0254 6.04685 20.9994 5.56691L12.1093 1.40809L29.7204 15.1261C29.7204 15.1261 36.3994 20.1932 38.5886 22.0059C38.9764 22.3271 39.2408 22.7734 39.3363 23.2692L40.0203 26.8588C40.7281 30.2323 39.4198 31.4996 38.1552 32.2591L36.5943 33.1913L36.8389 31.2814C36.9363 30.5476 36.7792 30.2581 36.3378 29.9923L32.526 27.8683C32.3073 27.7374 32.0687 27.668 31.8162 27.6343C29.273 27.2852 0 23.1482 0 23.1482C0 23.1482 8.4069 25.9624 13.5688 27.6898C14.6385 28.0487 14.5371 29.5897 13.4296 29.8059L9.28378 30.619L28.2053 41.5585C29.2253 42.1455 30.482 42.1475 31.502 41.5625C34.7013 39.726 41.6468 35.7397 44.009 34.3772C45.025 33.7902 45.6534 32.7093 45.6574 31.5392C45.6713 27.2039 45.6713 16.9427 45.6713 16.9427C45.6713 15.7666 45.0429 14.6798 44.0209 14.0928Z" fill="black"/>
<path d="M34.9937 25.0257C35.2601 25.6385 35.9719 25.9221 36.5864 25.6564C37.0218 25.4679 37.2843 25.0535 37.3081 24.6112L32.0946 21.5253C32.0946 21.5253 32.0429 21.8228 32.2079 21.9795C32.3809 22.1441 34.242 23.6969 34.936 24.276C34.8763 24.518 34.8883 24.7798 34.9937 25.0257Z" fill="black"/>
</svg>
