<?xml version="1.0" encoding="utf-8"?>
<!-- Generator: Adobe Illustrator 28.2.0, SVG Export Plug-In . SVG Version: 6.00 Build 0)  -->
<svg width="100" height="40"  version="1.1" id="Warstwa_1" xmlns="http://www.w3.org/2000/svg" xmlns:xlink="http://www.w3.org/1999/xlink" x="0px" y="0px"
	 viewBox="0 0 432.5 180.5" style="enable-background:new 0 0 432.5 180.5;" xml:space="preserve">
<style type="text/css">
	.st0{fill:#F7B640;}
	.st1{fill:#037EC2;}
</style>
<g>
	<g>
		<g>
			<path class="st0" d="M184.2,173.2h-4.9v-10.3h-7.2v10.3h-4.9V149h4.9v9.8h7.2V149h4.9V173.2z"/>
			<path class="st0" d="M207.5,163.3c0,3.2-0.8,5.8-2.3,7.6c-1.5,1.8-3.7,2.7-6.4,2.7c-2.7,0-4.8-0.9-6.4-2.7
				c-1.5-1.8-2.3-4.3-2.4-7.5v-4.1c0-3.3,0.8-5.9,2.3-7.8c1.5-1.9,3.7-2.8,6.4-2.8c2.7,0,4.8,0.9,6.4,2.7c1.5,1.8,2.3,4.4,2.4,7.7
				V163.3z M202.6,159.2c0-2.2-0.3-3.8-0.9-4.9c-0.6-1.1-1.6-1.6-2.9-1.6c-1.3,0-2.3,0.5-2.9,1.5c-0.6,1-0.9,2.6-1,4.7v4.3
				c0,2.1,0.3,3.7,0.9,4.7c0.6,1,1.6,1.5,2.9,1.5c1.3,0,2.2-0.5,2.8-1.5c0.6-1,0.9-2.5,0.9-4.6V159.2z"/>
			<path class="st0" d="M227.6,153.1h-6v20.1h-4.9v-20.1h-5.9V149h16.7V153.1z"/>
			<path class="st0" d="M245.3,162.7h-7.6v6.4h9v4.1h-13.9V149h13.8v4.1h-9v5.7h7.6V162.7z"/>
			<path class="st0" d="M256.7,169.1h8.6v4.1h-13.4V149h4.9V169.1z"/>
		</g>
	</g>
	<g>
		<g>
			<g>
				<path class="st1" d="M267.6,115.1c-0.2,5.4-1.8,9.5-4.6,12.3c-2.8,2.8-6.8,4.2-11.9,4.2c-5.4,0-9.5-1.8-12.4-5.3
					s-4.3-8.6-4.3-15.2v-8c0-6.5,1.5-11.6,4.4-15.1c3-3.5,7.1-5.3,12.4-5.3c5.2,0,9.1,1.4,11.8,4.3c2.7,2.9,4.2,7.1,4.6,12.5H258
					c-0.1-3.4-0.6-5.7-1.6-6.9c-0.9-1.3-2.7-1.9-5.2-1.9c-2.6,0-4.4,0.9-5.5,2.7c-1.1,1.8-1.6,4.8-1.7,8.9v9c0,4.7,0.5,8,1.6,9.7
					c1.1,1.8,2.9,2.6,5.4,2.6c2.5,0,4.3-0.6,5.2-1.8c1-1.2,1.5-3.5,1.6-6.7H267.6z"/>
				<path class="st1" d="M283.1,123H300v8h-26.5V83.3h9.6V123z"/>
				<path class="st1" d="M337,111.4c0,6.4-1.5,11.3-4.5,14.9c-3,3.5-7.2,5.3-12.6,5.3c-5.3,0-9.5-1.7-12.6-5.2s-4.6-8.4-4.6-14.7
					v-8.1c0-6.5,1.5-11.6,4.5-15.3s7.2-5.5,12.6-5.5c5.3,0,9.5,1.8,12.5,5.4c3.1,3.6,4.6,8.7,4.6,15.2V111.4z M327.3,103.4
					c0-4.3-0.6-7.5-1.8-9.6c-1.2-2.1-3.1-3.1-5.7-3.1c-2.5,0-4.4,1-5.7,3c-1.2,2-1.9,5.1-1.9,9.2v8.5c0,4.2,0.6,7.2,1.9,9.2
					c1.2,2,3.2,3,5.8,3c2.5,0,4.4-1,5.6-2.9c1.2-1.9,1.8-4.9,1.9-9V103.4z"/>
				<path class="st1" d="M374.8,83.3v33c0,4.9-1.4,8.7-4.1,11.4c-2.7,2.6-6.5,3.9-11.5,3.9c-5.1,0-9-1.3-11.7-4
					c-2.7-2.7-4-6.5-4-11.5V83.3h9.7v32.8c0,2.7,0.4,4.6,1.3,5.8c0.9,1.2,2.5,1.7,4.7,1.7c2.3,0,3.9-0.6,4.7-1.7
					c0.8-1.1,1.3-3,1.3-5.6V83.3H374.8z"/>
				<path class="st1" d="M382.1,130.9V83.3h12.6c5.6,0,10,1.8,13.3,5.3c3.3,3.5,5,8.4,5.1,14.5v7.7c0,6.3-1.7,11.2-5,14.7
					c-3.3,3.6-7.9,5.3-13.6,5.3H382.1z M391.7,91.3V123h2.9c3.2,0,5.5-0.8,6.8-2.5c1.3-1.7,2-4.6,2.1-8.7v-8.3
					c0-4.4-0.6-7.5-1.9-9.3c-1.2-1.8-3.4-2.7-6.3-2.8H391.7z"/>
			</g>
		</g>
		<g>
			<path class="st1" d="M178.8,31.3c-11.5-0.5-22.2,2.9-30.9,8.9C143.5,21.2,126.5,7,106.1,7C85,7,67.4,22.2,63.8,42.3
				c-24.5,0.3-44.3,20.2-44.3,44.8c0,0.6,0,1.3,0,1.9c0.9,22.1,18.6,39.7,40.3,41.8l3.5-70.4h22.9l-2.8,55.8h11.2
				c-0.5-2-0.7-4.1-0.8-6.3l21.8-1.4c0.3,3.5,1.1,6.2,2.5,8.1c2.2,3,5.5,4.5,9.9,4.5c3.3,0,5.8-0.8,7.6-2.3c1.9-1.5,2.8-3.3,2.9-5.4
				c0.1-1.9-0.7-3.6-2.3-5.2c-1.6-1.5-5.4-2.9-11.5-4.3c-9.9-2.3-16.9-5.2-21-9c-4.1-3.7-6-8.5-5.7-14.3c0.2-3.8,1.5-7.4,3.8-10.8
				c2.4-3.4,5.8-6.1,10.3-8c4.5-2,10.7-3.5,18.4-3.5c9.5,0,16.6,2.3,21.3,5.9c4.8,3.5,7.5,9.1,8,16.8l-21.8,0
				c-0.5-2.7-1.5-4.7-3.1-6c-1.7-1.5-4.2-2.3-7.5-2.3c-2.7,0-4.7,0.6-6.1,1.7c-1.4,1.1-2.1,2.5-2.2,4.1c-0.1,1.2,0.4,2.2,1.5,3.2
				c1,1,3.5,1.9,7.5,2.7c9.9,2.2,18.4,4.3,22.6,6.6c4.2,2.2,7.2,4.9,9,8.2c0.7,1.3,1.3,2.6,1.7,3.9l2.1-42.9h22.9l-3.5,70.2
				c24.4-3.1,43.2-22.9,43.7-48C227.4,55.4,205.9,32.5,178.8,31.3z M149.5,130.9h10.8l0.7-13.4c-0.8,2-1.8,4-3.1,5.8
				C155.7,126.5,152.9,129,149.5,130.9z"/>
		</g>
	</g>
</g>
</svg>
