<svg width="404" height="404" viewBox="0 0 404 404" fill="none" xmlns="http://www.w3.org/2000/svg">
<g filter="url(#filter0_d_101_2)">
<mask id="path-1-inside-1_101_2" fill="white">
<path fill-rule="evenodd" clip-rule="evenodd" d="M225.146 103.387C225.144 103.385 225.143 103.382 225.142 103.379C210.488 108.23 195.276 108.294 181.084 106.025C171.642 112.331 163.378 120.181 155.491 128.336C152.216 131.745 149.176 135.374 146.391 139.196C139.965 147.947 134.757 157.456 129.488 167.077L129.488 167.077L129.487 167.078C127.942 169.9 126.391 172.731 124.803 175.555C124.287 176.705 123.758 177.853 123.214 179L123.124 178.96C114.407 197.511 102.873 216.979 89.0935 232.386L89.1034 232.392C84.5515 237.449 79.606 242.138 74.3124 246.414C73.2731 247.236 72.2154 248.045 71.1561 248.855C66.2107 252.639 61.2302 256.449 57.9258 261.676C53.8107 268.189 52.7816 276.262 53.4374 283.941C56.5374 320.138 88.6644 334.561 120.609 340.438L120.599 340.395C132.589 342.522 144.674 343.499 155.435 344.075C155.435 344.075 206.58 346.761 254.537 322.485C254.86 322.514 255.184 322.541 255.508 322.566L257.069 321.744C256.957 321.612 256.844 321.48 256.73 321.348C262.53 318.316 268.136 314.927 273.515 311.2C287.468 301.521 300.327 290.078 310.847 276.951C310.8 276.887 310.754 276.823 310.708 276.759C311.961 275.154 313.177 273.524 314.355 271.87C324.852 257.135 332.45 240.495 335.573 222.031C340.818 191.049 335.186 157.595 318.616 131.382C318.626 131.364 318.636 131.346 318.646 131.329C309.595 117.643 297.411 106.095 282.08 98.2044C272.473 93.2267 262.085 89.9306 251.366 88.4592C243.666 95.075 234.763 100.143 225.146 103.387Z"/>
</mask>
<path fill-rule="evenodd" clip-rule="evenodd" d="M225.146 103.387C225.144 103.385 225.143 103.382 225.142 103.379C210.488 108.23 195.276 108.294 181.084 106.025C171.642 112.331 163.378 120.181 155.491 128.336C152.216 131.745 149.176 135.374 146.391 139.196C139.965 147.947 134.757 157.456 129.488 167.077L129.488 167.077L129.487 167.078C127.942 169.9 126.391 172.731 124.803 175.555C124.287 176.705 123.758 177.853 123.214 179L123.124 178.96C114.407 197.511 102.873 216.979 89.0935 232.386L89.1034 232.392C84.5515 237.449 79.606 242.138 74.3124 246.414C73.2731 247.236 72.2154 248.045 71.1561 248.855C66.2107 252.639 61.2302 256.449 57.9258 261.676C53.8107 268.189 52.7816 276.262 53.4374 283.941C56.5374 320.138 88.6644 334.561 120.609 340.438L120.599 340.395C132.589 342.522 144.674 343.499 155.435 344.075C155.435 344.075 206.58 346.761 254.537 322.485C254.86 322.514 255.184 322.541 255.508 322.566L257.069 321.744C256.957 321.612 256.844 321.48 256.73 321.348C262.53 318.316 268.136 314.927 273.515 311.2C287.468 301.521 300.327 290.078 310.847 276.951C310.8 276.887 310.754 276.823 310.708 276.759C311.961 275.154 313.177 273.524 314.355 271.87C324.852 257.135 332.45 240.495 335.573 222.031C340.818 191.049 335.186 157.595 318.616 131.382C318.626 131.364 318.636 131.346 318.646 131.329C309.595 117.643 297.411 106.095 282.08 98.2044C272.473 93.2267 262.085 89.9306 251.366 88.4592C243.666 95.075 234.763 100.143 225.146 103.387Z" fill="url(#paint0_radial_101_2)"/>
<path d="M225.142 103.379L224.827 102.43L225.654 102.156L226.039 102.938L225.142 103.379ZM225.146 103.387L225.465 104.335L224.635 104.615L224.248 103.829L225.146 103.387ZM181.084 106.025L180.529 105.193L180.855 104.976L181.242 105.038L181.084 106.025ZM155.491 128.336L154.77 127.643L154.772 127.641L155.491 128.336ZM146.391 139.196L147.199 139.785L147.197 139.788L146.391 139.196ZM129.488 167.077L128.606 166.606L128.611 166.597L129.488 167.077ZM129.488 167.077L130.37 167.548L129.488 167.077ZM129.487 167.078L130.37 167.549L130.364 167.558L129.487 167.078ZM124.803 175.555L123.891 175.146L123.909 175.105L123.932 175.065L124.803 175.555ZM123.214 179L124.118 179.428L123.7 180.308L122.809 179.914L123.214 179ZM123.124 178.96L122.219 178.535L122.635 177.65L123.529 178.045L123.124 178.96ZM89.0935 232.386L88.5682 233.237L87.5519 232.609L88.3481 231.719L89.0935 232.386ZM89.1034 232.392L89.6287 231.541L90.6483 232.17L89.8467 233.061L89.1034 232.392ZM74.3124 246.414L74.9408 247.192L74.9326 247.198L74.3124 246.414ZM71.1561 248.855L70.5485 248.061L71.1561 248.855ZM57.9258 261.676L57.0804 261.141L57.0806 261.141L57.9258 261.676ZM53.4374 283.941L52.4411 284.027L52.4411 284.026L53.4374 283.941ZM120.609 340.438L121.587 340.229L121.898 341.692L120.428 341.421L120.609 340.438ZM120.599 340.395L119.621 340.604L119.312 339.151L120.774 339.41L120.599 340.395ZM155.435 344.075L155.383 345.073L155.382 345.073L155.435 344.075ZM254.537 322.485L254.085 321.593L254.34 321.464L254.625 321.489L254.537 322.485ZM255.508 322.566L255.975 323.451L255.719 323.586L255.431 323.563L255.508 322.566ZM257.069 321.744L257.829 321.094L258.643 322.045L257.536 322.629L257.069 321.744ZM256.73 321.348L255.971 321.998L255.154 321.044L256.267 320.462L256.73 321.348ZM273.515 311.2L274.085 312.022L274.085 312.022L273.515 311.2ZM310.847 276.951L311.656 276.364L312.104 276.981L311.627 277.577L310.847 276.951ZM310.708 276.759L309.897 277.345L309.458 276.736L309.92 276.144L310.708 276.759ZM314.355 271.87L313.541 271.29L313.541 271.29L314.355 271.87ZM335.573 222.031L334.587 221.864L334.587 221.864L335.573 222.031ZM318.616 131.382L317.771 131.916L317.451 131.409L317.746 130.888L318.616 131.382ZM318.646 131.329L319.48 130.777L319.819 131.289L319.516 131.823L318.646 131.329ZM282.08 98.2044L281.622 99.0936L281.62 99.0923L282.08 98.2044ZM251.366 88.4592L250.715 87.7007L251.056 87.4073L251.502 87.4685L251.366 88.4592ZM226.039 102.938C226.04 102.939 226.04 102.941 226.041 102.942C226.042 102.944 226.042 102.945 226.043 102.946L224.248 103.829C224.248 103.827 224.247 103.826 224.246 103.824C224.246 103.823 224.245 103.822 224.244 103.821L226.039 102.938ZM181.242 105.038C195.326 107.289 210.368 107.217 224.827 102.43L225.456 104.329C210.608 109.244 195.225 109.298 180.926 107.013L181.242 105.038ZM154.772 127.641C162.674 119.47 170.997 111.559 180.529 105.193L181.639 106.857C172.287 113.103 164.082 120.892 156.21 129.031L154.772 127.641ZM145.583 138.607C148.394 134.748 151.463 131.085 154.77 127.643L156.212 129.029C152.968 132.405 149.957 135.999 147.199 139.785L145.583 138.607ZM128.611 166.597C133.875 156.986 139.113 147.417 145.585 138.604L147.197 139.788C140.817 148.476 135.64 157.926 130.365 167.557L128.611 166.597ZM128.605 166.607L128.606 166.606L130.37 167.548L130.37 167.548L128.605 166.607ZM128.605 166.607L128.605 166.607L130.37 167.548L130.369 167.549L128.605 166.607ZM123.932 175.065C125.517 172.246 127.064 169.42 128.61 166.598L130.364 167.558C128.819 170.379 127.266 173.215 125.675 176.045L123.932 175.065ZM122.31 178.571C122.851 177.431 123.378 176.289 123.891 175.146L125.716 175.965C125.197 177.121 124.664 178.275 124.118 179.428L122.31 178.571ZM123.529 178.045L123.618 178.085L122.809 179.914L122.72 179.874L123.529 178.045ZM88.3481 231.719C102.042 216.409 113.527 197.032 122.219 178.535L124.029 179.385C115.287 197.99 103.704 217.55 89.8388 233.052L88.3481 231.719ZM88.5781 233.243L88.5682 233.237L89.6187 231.535L89.6287 231.541L88.5781 233.243ZM73.684 245.636C78.9365 241.393 83.8436 236.741 88.3602 231.723L89.8467 233.061C85.2594 238.157 80.2755 242.883 74.9408 247.192L73.684 245.636ZM70.5485 248.061C71.6089 247.25 72.6602 246.445 73.6922 245.63L74.9326 247.198C73.886 248.026 72.822 248.84 71.7638 249.65L70.5485 248.061ZM57.0806 261.141C60.4968 255.738 65.6301 251.824 70.5485 248.061L71.7638 249.65C66.7913 253.454 61.9635 257.161 58.771 262.21L57.0806 261.141ZM52.4411 284.026C51.7743 276.22 52.8082 267.903 57.0804 261.141L58.7712 262.21C54.8132 268.474 53.7888 276.304 54.4338 283.856L52.4411 284.026ZM120.428 341.421C104.39 338.471 88.2083 333.36 75.6252 324.373C63.0057 315.36 54.0191 302.453 52.4411 284.027L54.4338 283.856C55.9556 301.626 64.5826 314.029 76.7876 322.746C89.029 331.489 104.883 336.528 120.789 339.454L120.428 341.421ZM121.577 340.186L121.587 340.229L119.631 340.646L119.621 340.604L121.577 340.186ZM155.382 345.073C144.603 344.497 132.472 343.516 120.425 341.38L120.774 339.41C132.706 341.527 144.744 342.501 155.488 343.076L155.382 345.073ZM254.988 323.378C230.875 335.584 205.979 341.004 187.127 343.376C177.698 344.562 169.771 344.987 164.199 345.115C161.412 345.179 159.213 345.169 157.709 345.143C156.957 345.13 156.378 345.112 155.986 345.098C155.789 345.091 155.64 345.085 155.539 345.081C155.489 345.079 155.45 345.077 155.424 345.076C155.411 345.075 155.401 345.074 155.394 345.074C155.39 345.074 155.388 345.074 155.386 345.074C155.385 345.074 155.384 345.074 155.384 345.074C155.383 345.074 155.383 345.073 155.435 344.075C155.487 343.076 155.487 343.076 155.488 343.076C155.488 343.076 155.488 343.076 155.489 343.076C155.49 343.076 155.492 343.076 155.495 343.077C155.5 343.077 155.509 343.077 155.521 343.078C155.544 343.079 155.58 343.081 155.627 343.083C155.723 343.087 155.866 343.093 156.057 343.1C156.437 343.113 157.004 343.13 157.744 343.143C159.223 343.169 161.395 343.179 164.153 343.116C169.668 342.989 177.526 342.568 186.877 341.391C205.587 339.037 230.242 333.663 254.085 321.593L254.988 323.378ZM255.431 323.563C255.103 323.538 254.775 323.511 254.448 323.481L254.625 321.489C254.945 321.518 255.266 321.545 255.586 321.569L255.431 323.563ZM257.536 322.629L255.975 323.451L255.042 321.682L256.603 320.859L257.536 322.629ZM257.49 320.698C257.603 320.83 257.716 320.962 257.829 321.094L256.31 322.394C256.197 322.263 256.084 322.13 255.971 321.998L257.49 320.698ZM274.085 312.022C268.671 315.773 263.03 319.183 257.194 322.234L256.267 320.462C262.03 317.449 267.6 314.082 272.946 310.378L274.085 312.022ZM311.627 277.577C301.037 290.791 288.103 302.298 274.085 312.022L272.945 310.378C286.833 300.745 299.617 289.365 310.066 276.326L311.627 277.577ZM311.519 276.174C311.564 276.237 311.61 276.3 311.656 276.364L310.037 277.539C309.991 277.474 309.944 277.409 309.897 277.345L311.519 276.174ZM309.92 276.144C311.164 274.55 312.371 272.932 313.541 271.29L315.17 272.45C313.983 274.116 312.758 275.758 311.496 277.375L309.92 276.144ZM313.541 271.29C323.962 256.66 331.493 240.159 334.587 221.864L336.559 222.198C333.408 240.831 325.741 257.611 315.17 272.45L313.541 271.29ZM334.587 221.864C339.795 191.1 334.195 157.899 317.771 131.916L319.461 130.847C336.176 157.29 341.841 190.999 336.559 222.198L334.587 221.864ZM319.516 131.823C319.506 131.84 319.496 131.858 319.486 131.875L317.746 130.888C317.757 130.87 317.767 130.852 317.777 130.835L319.516 131.823ZM282.537 97.3153C298.034 105.291 310.343 116.961 319.48 130.777L317.812 131.88C308.847 118.325 296.788 106.899 281.622 99.0935L282.537 97.3153ZM251.502 87.4685C262.334 88.9554 272.832 92.2862 282.54 97.3165L281.62 99.0923C272.114 94.1671 261.836 90.9058 251.23 89.4499L251.502 87.4685ZM224.826 102.44C234.321 99.2366 243.111 94.2328 250.715 87.7007L252.018 89.2177C244.22 95.9173 235.204 101.05 225.465 104.335L224.826 102.44Z" fill="#616161" mask="url(#path-1-inside-1_101_2)"/>
<path d="M256.659 61.3695C241.052 54.9792 218.002 51.1167 191.941 56.9363C161.168 63.8243 140.227 64.694 125.043 62.1926C130.628 66.9214 149.021 81.4061 172.32 88.4283C185.238 92.3218 199.642 93.9153 214.197 90.3014C228.596 86.7261 243.185 78.0437 256.659 61.3695Z" fill="url(#paint1_radial_101_2)" stroke="#616161"/>
</g>
<defs>
<filter id="filter0_d_101_2" x="47.2551" y="52.5764" width="296.214" height="302.587" filterUnits="userSpaceOnUse" color-interpolation-filters="sRGB">
<feFlood flood-opacity="0" result="BackgroundImageFix"/>
<feColorMatrix in="SourceAlpha" type="matrix" values="0 0 0 0 0 0 0 0 0 0 0 0 0 0 0 0 0 0 127 0" result="hardAlpha"/>
<feOffset dy="5"/>
<feGaussianBlur stdDeviation="3"/>
<feComposite in2="hardAlpha" operator="out"/>
<feColorMatrix type="matrix" values="0 0 0 0 0 0 0 0 0 0 0 0 0 0 0 0 0 0 0.25 0"/>
<feBlend mode="normal" in2="BackgroundImageFix" result="effect1_dropShadow_101_2"/>
<feBlend mode="normal" in="SourceGraphic" in2="effect1_dropShadow_101_2" result="shape"/>
</filter>
<radialGradient id="paint0_radial_101_2" cx="0" cy="0" r="1" gradientTransform="matrix(125.043 218.579 309.941 -177.307 135.91 115.707)" gradientUnits="userSpaceOnUse">
<stop offset="0.307417" stop-color="#F2C94C" stop-opacity="0.95"/>
<stop offset="1" stop-color="#E54033" stop-opacity="0.9"/>
</radialGradient>
<radialGradient id="paint1_radial_101_2" cx="0" cy="0" r="1" gradientUnits="userSpaceOnUse" gradientTransform="translate(177.352 60.336) rotate(82.6018) scale(34.1341 71.5361)">
<stop stop-color="#6CBF00"/>
<stop offset="1" stop-color="#4F8B00"/>
</radialGradient>
</defs>
</svg>
