<svg width="408" height="48" viewBox="0 0 408 48" fill="none" xmlns="http://www.w3.org/2000/svg">
<path d="M0.5 42.5492V5.72156H9.11118L21.2426 38.379L33.32 5.72156H41.9311V42.5492H37.0027V9.35017L24.113 42.5492H18.3181L5.48257 9.35017V42.5492H0.5Z" fill="black"/>
<path d="M47.3467 42.5492V5.72156H62.8617C70.9165 5.72156 75.944 9.78343 75.944 16.3366C75.944 20.8859 73.5654 24.0271 69.8353 25.6518C73.4573 26.8433 74.8087 29.6595 74.8628 34.3713C74.9169 38.8665 75.4574 40.6537 76.863 42.5492H71.7274C70.7543 41.4119 70.1056 38.8123 70.1056 34.1547C70.0515 29.1721 67.8892 27.0058 62.6454 26.9516H52.3201V42.5492H47.3467ZM52.3201 23.0522H62.8617C67.8351 23.0522 71.0246 20.3443 71.0246 16.3366C71.0246 12.2747 67.8351 9.62096 62.8617 9.62096H52.3201V23.0522Z" fill="black"/>
<path d="M133.729 42.5492V5.72156H142.284L154.337 38.379L166.335 5.72156H174.89V42.5492H169.994V9.35017L157.188 42.5492H151.431L138.679 9.35017V42.5492H133.729Z" fill="black"/>
<path d="M180.035 42.5492V5.72156H195.408C203.389 5.72156 208.37 9.78343 208.37 16.3366C208.37 20.8859 206.013 24.0271 202.317 25.6518C205.906 26.8433 207.245 29.6595 207.299 34.3713C207.352 38.8665 207.888 40.6537 209.281 42.5492H204.192C203.228 41.4119 202.585 38.8123 202.585 34.1547C202.532 29.1721 200.389 27.0058 195.194 26.9516H184.963V42.5492H180.035ZM184.963 23.0522H195.408C200.336 23.0522 203.496 20.3443 203.496 16.3366C203.496 12.2747 200.336 9.62096 195.408 9.62096H184.963V23.0522Z" fill="black"/>
<path d="M227.069 43.3614C218.083 43.3614 211.985 38.7386 211.718 32.1034L216.746 31.6683C217.12 36.0736 221.346 39.5 227.069 39.5C233.274 39.5 236.965 37.2157 236.965 33.0823C236.965 28.0788 232.097 26.7735 226.588 25.7946C219.848 24.5437 212.788 22.9121 212.788 14.6997C212.788 8.33647 218.03 4.63818 227.016 4.63818C235.521 4.63818 241.191 8.98911 241.405 15.2979L236.27 15.733C236.056 11.5453 232.311 8.49963 227.016 8.49963C221.185 8.49963 217.869 10.6207 217.869 14.6997C217.869 19.105 222.576 20.4103 227.818 21.4436C234.772 22.6945 242.046 24.3805 242.046 33.0823C242.046 39.5 236.43 43.3614 227.069 43.3614Z" fill="black"/>
<path d="M267.687 43.3614C258.701 43.3614 252.603 38.7386 252.336 32.1034L257.364 31.6683C257.738 36.0736 261.964 39.5 267.687 39.5C273.892 39.5 277.583 37.2157 277.583 33.0823C277.583 28.0788 272.716 26.7735 267.206 25.7946C260.466 24.5437 253.406 22.9121 253.406 14.6997C253.406 8.33647 258.648 4.63818 267.634 4.63818C276.139 4.63818 281.809 8.98911 282.023 15.2979L276.888 15.733C276.674 11.5453 272.929 8.49963 267.634 8.49963C261.804 8.49963 258.487 10.6207 258.487 14.6997C258.487 19.105 263.194 20.4103 268.436 21.4436C275.39 22.6945 282.665 24.3805 282.665 33.0823C282.665 39.5 277.048 43.3614 267.687 43.3614Z" fill="black"/>
<path d="M287.539 42.5492V5.72156H296.038L308.011 38.379L319.93 5.72156H328.429V42.5492H323.565V9.35017L310.843 42.5492H305.124L292.456 9.35017V42.5492H287.539Z" fill="black"/>
<path d="M334.657 42.5492V5.72156H339.531V42.5492H334.657Z" fill="black"/>
<path d="M355.634 42.5492V9.62096H343.052V5.72156H373.11V9.62096H360.581V42.5492H355.634Z" fill="black"/>
<path d="M375.817 42.5492V5.72156H380.766V20.7776H402.605V5.72156H407.5V42.5492H402.605V24.677H380.766V42.5492H375.817Z" fill="black"/>
<path d="M104.073 47.4235C117.216 47.4235 128.043 38.8266 128.043 28.5477C128.043 23.3771 124.789 20.0131 119.657 20.0131C114.525 20.0131 109.769 23.2525 106.765 30.3543L107.453 30.292C106.765 21.9442 101.195 15.9638 93.6847 15.9638C79.4157 15.9638 74.0961 36.8331 87.8019 36.8331C93.3092 36.8331 99.0668 33.4068 103.385 27.7378L117.153 9.67183C119.469 6.6816 121.659 5.49796 123.224 5.49796C124.476 5.49796 125.414 6.18322 125.414 7.92753C125.414 10.544 122.035 14.9047 114.337 14.9047C108.204 14.9047 105.137 12.5998 103.385 7.86523C102.259 4.8127 103.072 0.576538 99.4423 0.576538C92.8711 0.576538 96.1254 15.8392 114.024 15.8392C122.848 15.8392 126.478 10.9178 126.478 7.49145C126.478 5.31107 124.914 3.44218 122.223 3.44218C118.53 3.44218 115.151 5.43567 111.083 10.6686L97.69 27.8624C94.0602 32.4724 89.9297 35.1511 86.1747 35.1511C77.2253 35.1511 79.1028 18.7671 92.9963 18.7671C99.2546 18.7671 105.701 22.6295 106.577 31.2264H107.39C109.143 26.1804 112.96 22.4426 117.279 22.4426C121.034 22.4426 123.349 25.0591 123.349 29.2329C123.349 38.3905 114.087 46.1776 103.322 46.1776C94.4357 46.1776 87.2386 41.3185 87.2386 35.2757C87.2386 31.5379 89.9923 28.6723 94.1853 28.6723C100.631 28.6723 101.382 35.4003 102.509 38.2659C103.385 40.5086 104.449 41.6299 106.201 41.6299C108.392 41.6299 109.393 39.8233 109.393 38.6397C109.393 35.2757 102.196 27.7378 94.5608 27.7378C89.3664 27.7378 86.2999 31.1641 86.2999 35.4003C86.2999 42.066 93.935 47.4235 104.073 47.4235Z" fill="black"/>
</svg>
